<svg width="60" height="60" viewBox="0 0 60 60" fill="none" xmlns="http://www.w3.org/2000/svg">
<path fill-rule="evenodd" clip-rule="evenodd" d="M0 10C0 4.47715 4.47715 0 10 0H50C55.5228 0 60 4.47715 60 10V60H10C4.47715 60 0 55.5228 0 50V10ZM20.8333 14.8333C17.5118 14.8333 14.8333 17.5118 14.8333 20.8333V25C14.8333 25.8284 14.1618 26.5 13.3333 26.5C12.5049 26.5 11.8333 25.8284 11.8333 25V20.8333C11.8333 15.8549 15.8549 11.8333 20.8333 11.8333H25C25.8284 11.8333 26.5 12.5049 26.5 13.3333C26.5 14.1618 25.8284 14.8333 25 14.8333H20.8333ZM35 11.8333C34.1716 11.8333 33.5 12.5049 33.5 13.3333C33.5 14.1618 34.1716 14.8333 35 14.8333H39.1667C42.4882 14.8333 45.1667 17.5118 45.1667 20.8333V25C45.1667 25.8284 45.8382 26.5 46.6667 26.5C47.4951 26.5 48.1667 25.8284 48.1667 25V20.8333C48.1667 15.8549 44.1451 11.8333 39.1667 11.8333H35ZM46.6667 35.1667C47.4951 35.1667 48.1667 35.8382 48.1667 36.6667V39.1667C48.1667 44.1451 44.1451 48.1667 39.1667 48.1667H36.6667C35.8382 48.1667 35.1667 47.4951 35.1667 46.6667C35.1667 45.8382 35.8382 45.1667 36.6667 45.1667H39.1667C42.4882 45.1667 45.1667 42.4882 45.1667 39.1667V36.6667C45.1667 35.8382 45.8382 35.1667 46.6667 35.1667ZM14.8333 35C14.8333 34.1716 14.1618 33.5 13.3333 33.5C12.5049 33.5 11.8333 34.1716 11.8333 35V39.1667C11.8333 44.1451 15.8549 48.1667 20.8333 48.1667H25C25.8284 48.1667 26.5 47.4951 26.5 46.6667C26.5 45.8382 25.8284 45.1667 25 45.1667H20.8333C17.5118 45.1667 14.8333 42.4882 14.8333 39.1667V35ZM23.9773 23.144C23.5245 23.5968 23.1667 24.3979 23.1667 25.8333V28.5H36.8333V25.8333C36.8333 24.3979 36.4755 23.5968 36.0227 23.144C35.5699 22.6912 34.7688 22.3333 33.3333 22.3333H26.6667C25.2312 22.3333 24.4301 22.6912 23.9773 23.144ZM39.8333 28.5V25.8333C39.8333 23.9354 39.3578 22.2365 38.144 21.0227C36.9301 19.8088 35.2312 19.3333 33.3333 19.3333H26.6667C24.7688 19.3333 23.0699 19.8088 21.856 21.0227C20.6422 22.2365 20.1667 23.9354 20.1667 25.8333V28.5H18.3333C17.5049 28.5 16.8333 29.1716 16.8333 30C16.8333 30.8284 17.5049 31.5 18.3333 31.5H20.1667V34.1667C20.1667 36.0646 20.6422 37.7635 21.856 38.9773C23.0699 40.1912 24.7688 40.6667 26.6667 40.6667H33.3333C35.2312 40.6667 36.9301 40.1912 38.144 38.9773C39.3578 37.7635 39.8333 36.0646 39.8333 34.1667V31.5H41.6667C42.4951 31.5 43.1667 30.8284 43.1667 30C43.1667 29.1716 42.4951 28.5 41.6667 28.5H39.8333ZM36.8333 31.5V34.1667C36.8333 35.6021 36.4755 36.4032 36.0227 36.856C35.5699 37.3088 34.7688 37.6667 33.3333 37.6667H26.6667C25.2312 37.6667 24.4301 37.3088 23.9773 36.856C23.5245 36.4032 23.1667 35.6021 23.1667 34.1667V31.5H36.8333Z" fill="#40FFE4"/>
</svg>
