<svg width="60" height="60" viewBox="0 0 60 60" fill="none" xmlns="http://www.w3.org/2000/svg">
<path fill-rule="evenodd" clip-rule="evenodd" d="M0 10C0 4.47715 4.47715 0 10 0H50C55.5228 0 60 4.47715 60 10V60H10C4.47715 60 0 55.5228 0 50V10ZM32.4764 16L34.2936 14.4857C34.93 13.9553 35.016 13.0095 34.4857 12.3731C33.9553 11.7366 33.0095 11.6507 32.3731 12.181L27.3731 16.3477C27.0311 16.6327 26.8333 17.0548 26.8333 17.5C26.8333 17.9452 27.0311 18.3673 27.3731 18.6523L32.3731 22.819C33.0095 23.3493 33.9553 23.2634 34.4857 22.6269C35.016 21.9905 34.93 21.0447 34.2936 20.5143L32.4764 19H38.3333C39.3382 19 40.1667 19.8284 40.1667 20.8333V35.3406C37.3 36.0178 35.1667 38.5931 35.1667 41.6667C35.1667 45.2565 38.0768 48.1667 41.6667 48.1667C45.2565 48.1667 48.1667 45.2565 48.1667 41.6667C48.1667 38.5931 46.0334 36.0178 43.1667 35.3406V20.8333C43.1667 18.1716 40.9951 16 38.3333 16H32.4764ZM41.6667 38.1667L41.6695 38.1667C43.6012 38.1682 45.1667 39.7346 45.1667 41.6667C45.1667 43.5997 43.5997 45.1667 41.6667 45.1667C39.7337 45.1667 38.1667 43.5997 38.1667 41.6667C38.1667 39.7337 39.7337 38.1667 41.6667 38.1667ZM18.3333 21.8333C20.2663 21.8333 21.8333 20.2663 21.8333 18.3333C21.8333 16.4003 20.2663 14.8333 18.3333 14.8333C16.4003 14.8333 14.8333 16.4003 14.8333 18.3333C14.8333 20.2663 16.4003 21.8333 18.3333 21.8333ZM19.8333 39.1667V24.6594C22.7 23.9822 24.8333 21.4069 24.8333 18.3333C24.8333 14.7435 21.9232 11.8333 18.3333 11.8333C14.7435 11.8333 11.8333 14.7435 11.8333 18.3333C11.8333 21.4069 13.9666 23.9822 16.8333 24.6594V39.1667C16.8333 41.8284 19.0049 44 21.6667 44H27.5236L25.7064 45.5143C25.07 46.0447 24.984 46.9905 25.5143 47.6269C26.0447 48.2634 26.9905 48.3493 27.6269 47.819L32.6269 43.6523C32.9689 43.3673 33.1667 42.9452 33.1667 42.5C33.1667 42.0548 32.9689 41.6327 32.6269 41.3477L27.6269 37.181C26.9905 36.6507 26.0447 36.7366 25.5143 37.3731C24.984 38.0095 25.07 38.9553 25.7064 39.4857L27.5236 41H21.6667C20.6618 41 19.8333 40.1716 19.8333 39.1667Z" fill="#40FFE4"/>
</svg>
