<svg width="60" height="60" viewBox="0 0 60 60" fill="none" xmlns="http://www.w3.org/2000/svg">
<path fill-rule="evenodd" clip-rule="evenodd" d="M0 10C0 4.47715 4.47715 0 10 0H50C55.5228 0 60 4.47715 60 10V60H10C4.47715 60 0 55.5228 0 50V10ZM42.9997 27.8333C41.9872 27.8333 41.1663 28.6541 41.1663 29.6667C41.1663 30.6792 41.9872 31.5 42.9997 31.5C44.0122 31.5 44.833 30.6792 44.833 29.6667C44.833 28.6541 44.0122 27.8333 42.9997 27.8333ZM42.9997 34.5C40.8539 34.5 39.0347 33.1017 38.4036 31.1666H29.4998V38C29.4998 39.4354 29.8577 40.2365 30.3105 40.6893C30.7633 41.1422 31.5644 41.5 32.9998 41.5H38.4036C39.0347 39.5649 40.8539 38.1666 42.9997 38.1666C45.6691 38.1666 47.833 40.3306 47.833 43C47.833 45.6694 45.6691 47.8333 42.9997 47.8333C40.8539 47.8333 39.0348 46.4351 38.4036 44.5H32.9998C31.102 44.5 29.403 44.0245 28.1892 42.8107C26.9753 41.5968 26.4998 39.8979 26.4998 38V31.1666H20.9292C20.2981 33.1017 18.4789 34.5 16.3332 34.5C13.6638 34.5 11.4998 32.336 11.4998 29.6667C11.4998 26.9973 13.6638 24.8333 16.3332 24.8333C18.4789 24.8333 20.2981 26.2316 20.9292 28.1666H26.4998V21.3333C26.4998 19.4354 26.9753 17.7365 28.1892 16.5227C29.403 15.3088 31.102 14.8333 32.9998 14.8333H38.4036C39.0347 12.8983 40.8539 11.5 42.9997 11.5C45.6691 11.5 47.833 13.6639 47.833 16.3333C47.833 19.0027 45.6691 21.1667 42.9997 21.1667C40.8539 21.1667 39.0347 19.7684 38.4036 17.8333H32.9998C31.5644 17.8333 30.7633 18.1912 30.3105 18.644C29.8577 19.0968 29.4998 19.8979 29.4998 21.3333V28.1666H38.4036C39.0348 26.2316 40.8539 24.8333 42.9997 24.8333C45.6691 24.8333 47.833 26.9973 47.833 29.6667C47.833 32.336 45.6691 34.5 42.9997 34.5ZM41.1664 16.35C41.1753 17.3548 41.9927 18.1667 42.9997 18.1667C44.0122 18.1667 44.833 17.3458 44.833 16.3333C44.833 15.3208 44.0122 14.5 42.9997 14.5C41.9927 14.5 41.1753 15.3118 41.1664 16.3167C41.1665 16.3222 41.1665 16.3278 41.1665 16.3333C41.1665 16.3389 41.1665 16.3444 41.1664 16.35ZM41.1664 43.0166C41.1753 44.0215 41.9927 44.8333 42.9997 44.8333C44.0122 44.8333 44.833 44.0125 44.833 43C44.833 41.9875 44.0122 41.1666 42.9997 41.1666C41.9927 41.1666 41.1753 41.9785 41.1664 42.9834C41.1665 42.9889 41.1665 42.9944 41.1665 43C41.1665 43.0055 41.1665 43.0111 41.1664 43.0166ZM16.3332 31.5C17.3401 31.5 18.1575 30.6882 18.1664 29.6833L18.1663 29.6666L18.1664 29.65C18.1575 28.6452 17.3401 27.8333 16.3332 27.8333C15.3206 27.8333 14.4998 28.6541 14.4998 29.6667C14.4998 30.6792 15.3206 31.5 16.3332 31.5Z" fill="#40FFE4"/>
</svg>
