<svg width="40" height="40" viewBox="0 0 40 40" fill="none" xmlns="http://www.w3.org/2000/svg">
<path d="M4.98459 11.664C4.98459 7.98215 7.96942 4.99731 11.6513 4.99731H28.3179C31.9998 4.99731 34.9849 7.98215 34.9846 11.664V28.3306C34.9846 32.0125 31.9998 34.9973 28.3179 34.9973H11.6513C7.96942 34.9973 4.98426 32.0125 4.98459 28.3306V11.664ZM14.9846 13.3306V26.664C14.9853 28.0615 16.6016 28.8391 17.6929 27.966L26.0263 21.2993C26.8603 20.6321 26.8603 19.3625 26.0263 18.6951C24.9846 17.8618 18.7346 12.8618 17.6929 12.0285C16.6019 11.1555 14.9846 11.9331 14.9846 13.3306Z" fill="#00FFE0"/>
</svg>
