<svg width="186" height="29" viewBox="0 0 186 29" fill="none" xmlns="http://www.w3.org/2000/svg">
<path d="M40.8315 0C41.048 0 41.2374 0.0812955 41.3997 0.243886C41.5621 0.406476 41.6432 0.596164 41.6432 0.812951V16.0151C41.6432 16.259 41.5621 16.4622 41.3997 16.6248C41.2374 16.7603 41.048 16.8281 40.8315 16.8281H7.18407V28.4532H0V11.5439C0 11.0019 0.175881 10.5548 0.527643 10.2025C0.906465 9.82314 1.36646 9.63345 1.90763 9.63345H34.4186V7.23525H7.18407V8.8205H0V0H40.8315Z" fill="white"/>
<path d="M82.5375 0H89.7622V8.49532H82.5375V0ZM87.8139 9.63345C88.3551 9.63345 88.8151 9.82314 89.1939 10.2025C89.5728 10.5548 89.7622 11.0019 89.7622 11.5439V26.868C89.7622 27.3015 89.5998 27.6809 89.2751 28.0061C88.9775 28.3042 88.5986 28.4532 88.1386 28.4532H49.7019C49.2689 28.4532 48.8901 28.3042 48.5654 28.0061C48.2677 27.6809 48.1189 27.3015 48.1189 26.868V0H55.303V21.218H82.5375V9.63345H87.8139Z" fill="white"/>
<path d="M137.881 0V7.23525H103.463V8.49532H98.1455C97.6043 8.49532 97.1443 8.31918 96.7655 7.9669C96.4137 7.58753 96.2378 7.12686 96.2378 6.58489V1.6259C96.2378 1.16523 96.3867 0.785851 96.6843 0.48777C97.009 0.16259 97.4014 0 97.8614 0H137.881ZM136.258 9.63345C136.718 9.63345 137.096 9.79604 137.394 10.1212C137.719 10.4193 137.881 10.7851 137.881 11.2187V26.868C137.881 27.3015 137.719 27.6809 137.394 28.0061C137.096 28.3042 136.718 28.4532 136.258 28.4532H96.2378V21.218H130.656V16.8281H97.8614C97.4014 16.8281 97.009 16.679 96.6843 16.3809C96.3867 16.0828 96.2378 15.7035 96.2378 15.2428V9.63345H136.258Z" fill="white"/>
<path d="M144.357 0H151.541V8.49532H144.357V0ZM186 0L170.942 13.4137L186 28.4532H175.772L165.544 18.2101L154.098 28.4532H144.357V9.63345H149.633C150.174 9.63345 150.621 9.82314 150.973 10.2025C151.351 10.5548 151.541 11.0019 151.541 11.5439V21.0554L175.163 0H186Z" fill="white"/>
</svg>
