<svg width="26" height="25" viewBox="0 0 26 25" fill="none" xmlns="http://www.w3.org/2000/svg">
<g clip-path="url(#clip0_279_1270)">
<path d="M13 25C19.9036 25 25.5 19.4036 25.5 12.5C25.5 5.59648 19.9036 3.8147e-05 13 3.8147e-05C6.09644 3.8147e-05 0.5 5.59648 0.5 12.5C0.5 19.4036 6.09644 25 13 25Z" fill="#3C5A9A"/>
<path d="M17.0644 3.8369H14.2954C12.6521 3.8369 10.8244 4.52803 10.8244 6.90999C10.8324 7.73995 10.8244 8.53482 10.8244 9.42939H8.92334V12.4545H10.8832V21.1632H14.4845V12.397H16.8615L17.0766 9.4209H14.4225C14.4225 9.4209 14.4284 8.097 14.4225 7.71253C14.4225 6.77124 15.4019 6.82514 15.4608 6.82514C15.9269 6.82514 16.8332 6.8265 17.0658 6.82514V3.8369H17.0644Z" fill="white"/>
</g>
<defs>
<clipPath id="clip0_279_1270">
<rect width="25" height="25" fill="white" transform="translate(0.5)"/>
</clipPath>
</defs>
</svg>
