<svg width="25" height="25" viewBox="0 0 25 25" fill="none" xmlns="http://www.w3.org/2000/svg">
<g clip-path="url(#clip0_279_1275)">
<path d="M24.4873 12.7339C24.4873 11.7096 24.4057 10.9622 24.229 10.1871H12.739V14.81H19.4833C19.3474 15.9589 18.6132 17.689 16.9814 18.8516L16.9585 19.0064L20.5915 21.8712L20.8431 21.8967C23.1547 19.7237 24.4873 16.5263 24.4873 12.7339Z" fill="#4285F4"/>
<path d="M12.7391 24.9141C16.0433 24.9141 18.8172 23.8068 20.8433 21.8968L16.9815 18.8516C15.9481 19.5852 14.5612 20.0973 12.7391 20.0973C9.50292 20.0973 6.75623 17.9243 5.77711 14.9208L5.63359 14.9332L1.85604 17.9091L1.80664 18.0489C3.81906 22.1181 7.95273 24.9141 12.7391 24.9141Z" fill="#34A853"/>
<path d="M5.77714 14.9208C5.51879 14.1457 5.36928 13.3152 5.36928 12.457C5.36928 11.5988 5.51879 10.7684 5.76355 9.99331L5.75671 9.82823L1.93182 6.80457L1.80668 6.86516C0.977262 8.5538 0.501343 10.4501 0.501343 12.457C0.501343 14.464 0.977262 16.3602 1.80668 18.0488L5.77714 14.9208Z" fill="#FBBC05"/>
<path d="M12.7391 4.81672C15.0371 4.81672 16.5871 5.82712 17.471 6.67149L20.9248 3.23886C18.8036 1.23189 16.0433 2.28882e-05 12.7391 2.28882e-05C7.95273 2.28882e-05 3.81906 2.79592 1.80664 6.86519L5.76351 9.99334C6.75622 6.98981 9.50291 4.81672 12.7391 4.81672Z" fill="#EB4335"/>
</g>
<defs>
<clipPath id="clip0_279_1275">
<rect width="24" height="25" fill="white" transform="translate(0.5)"/>
</clipPath>
</defs>
</svg>
