<svg width="872" height="843" viewBox="0 0 872 843" fill="none" xmlns="http://www.w3.org/2000/svg">
<g clip-path="url(#clip0_55_26)">
<path d="M620.429 250.252C644.004 296.258 670.608 329.425 679.852 324.333C689.096 319.24 677.479 277.817 653.904 231.811C630.33 185.804 603.725 152.637 594.481 157.729C585.237 162.822 596.855 204.246 620.429 250.252Z" stroke="url(#paint0_linear_55_26)" stroke-width="2" stroke-miterlimit="10"/>
<path d="M620.015 250.961C646.41 300.113 675.469 335.535 684.92 330.079C694.37 324.623 680.633 280.354 654.237 231.203C627.841 182.051 598.782 146.629 589.332 152.086C579.882 157.542 593.619 201.81 620.015 250.961Z" stroke="url(#paint1_linear_55_26)" stroke-width="2" stroke-miterlimit="10"/>
<path d="M619.73 251.88C649.221 304.411 680.951 342.275 690.601 336.45C700.251 330.626 684.167 283.319 654.677 230.788C625.186 178.257 593.456 140.393 583.806 146.218C574.156 152.042 590.24 199.349 619.73 251.88Z" stroke="url(#paint2_linear_55_26)" stroke-width="2" stroke-miterlimit="10"/>
<path d="M619.163 252.039C651.933 308.013 686.478 348.367 696.32 342.172C706.162 335.977 687.576 285.579 654.805 229.604C622.035 173.63 587.49 133.276 577.647 139.471C567.805 145.666 586.392 196.064 619.163 252.039Z" stroke="url(#paint3_linear_55_26)" stroke-width="2" stroke-miterlimit="10"/>
<path d="M618.864 253.081C655.117 312.569 692.637 355.466 702.666 348.895C712.695 342.324 691.436 288.773 655.183 229.286C618.93 169.798 581.411 126.901 571.382 133.472C561.352 140.043 582.611 193.594 618.864 253.081Z" stroke="url(#paint4_linear_55_26)" stroke-width="2" stroke-miterlimit="10"/>
<path d="M618.709 253.625C658.737 316.829 699.461 362.431 709.669 355.481C719.877 348.531 695.703 291.66 655.676 228.456C615.648 165.252 574.924 119.649 564.716 126.599C554.508 133.549 578.681 190.421 618.709 253.625Z" stroke="url(#paint5_linear_55_26)" stroke-width="2" stroke-miterlimit="10"/>
<path d="M617.922 254.193C661.924 321.163 706.127 369.427 716.652 361.992C727.176 354.558 700.037 294.241 656.034 227.271C612.032 160.301 567.829 112.037 557.304 119.471C546.78 126.906 573.919 187.223 617.922 254.193Z" stroke="url(#paint6_linear_55_26)" stroke-width="2" stroke-miterlimit="10"/>
<path d="M617.448 255.091C665.741 326.02 713.671 377.092 724.502 369.164C735.333 361.236 704.964 297.309 656.671 226.38C608.379 155.451 560.449 104.379 549.618 112.307C538.787 120.235 569.156 184.162 617.448 255.091Z" stroke="url(#paint7_linear_55_26)" stroke-width="2" stroke-miterlimit="10"/>
<path d="M617.071 256.229C669.771 331.006 721.514 384.791 732.641 376.36C743.769 367.928 710.068 300.474 657.368 225.696C604.667 150.918 552.924 97.1338 541.797 105.565C530.669 113.996 564.37 181.451 617.071 256.229Z" stroke="url(#paint8_linear_55_26)" stroke-width="2" stroke-miterlimit="10"/>
<path d="M616.123 257.24C673.542 336.045 729.343 392.681 740.757 383.74C752.172 374.799 714.878 303.666 657.458 224.861C600.039 146.055 544.239 89.4196 532.824 98.3609C521.41 107.302 558.704 178.435 616.123 257.24Z" stroke="url(#paint9_linear_55_26)" stroke-width="2" stroke-miterlimit="10"/>
<path d="M615.795 258.682C678.28 341.672 738.521 401.188 750.348 391.615C762.175 382.042 721.11 307.004 658.625 224.013C596.141 141.023 535.899 81.5061 524.072 91.0796C512.245 100.653 553.311 175.691 615.795 258.682Z" stroke="url(#paint10_linear_55_26)" stroke-width="2" stroke-miterlimit="10"/>
<path d="M614.785 259.434C682.439 346.473 747.193 408.751 759.418 398.535C771.643 388.32 726.709 309.479 659.055 222.439C591.401 135.4 526.646 73.1214 514.421 83.3372C502.196 93.5529 547.131 172.394 614.785 259.434Z" stroke="url(#paint11_linear_55_26)" stroke-width="2" stroke-miterlimit="10"/>
<path d="M614.259 260.355C687.435 351.583 756.976 416.725 769.583 405.853C782.191 394.981 733.091 312.212 659.915 220.983C586.739 129.755 517.198 64.6128 504.59 75.485C491.983 86.3571 541.083 169.126 614.259 260.355Z" stroke="url(#paint12_linear_55_26)" stroke-width="2" stroke-miterlimit="10"/>
<path d="M613.748 261.897C692.693 357.317 767.21 425.314 780.186 413.772C793.163 402.229 739.685 315.519 660.74 220.099C581.795 124.679 507.278 56.682 494.302 68.2242C481.325 79.7664 534.803 166.477 613.748 261.897Z" stroke="url(#paint13_linear_55_26)" stroke-width="2" stroke-miterlimit="10"/>
<path d="M612.665 263.507C697.731 363.239 777.602 434.081 791.063 421.737C804.524 409.394 746.476 318.539 661.411 218.808C576.345 119.076 496.473 48.2346 483.013 60.5781C469.552 72.9216 527.599 163.776 612.665 263.507Z" stroke="url(#paint14_linear_55_26)" stroke-width="2" stroke-miterlimit="10"/>
<path d="M611.579 265.032C702.902 368.899 788.326 442.332 802.378 429.049C816.431 415.765 753.792 320.796 662.469 216.929C571.146 113.061 485.722 39.628 471.669 52.9114C457.617 66.1947 520.257 161.164 611.579 265.032Z" stroke="url(#paint15_linear_55_26)" stroke-width="2" stroke-miterlimit="10"/>
<path d="M610.726 267.043C708.571 375.014 799.743 450.993 814.365 436.748C828.987 422.502 761.521 323.426 663.676 215.456C565.831 107.485 474.658 31.5052 460.037 45.7506C445.415 59.9961 512.881 159.072 610.726 267.043Z" stroke="url(#paint16_linear_55_26)" stroke-width="2" stroke-miterlimit="10"/>
<path d="M609.767 268.804C714.388 380.822 811.494 459.286 826.659 444.059C841.824 428.832 769.306 325.679 664.684 213.661C560.063 101.643 462.957 23.1787 447.792 38.406C432.626 53.6332 505.145 156.786 609.767 268.804Z" stroke="url(#paint17_linear_55_26)" stroke-width="2" stroke-miterlimit="10"/>
<path d="M608.31 270.591C720.086 386.717 823.511 467.598 839.317 451.242C855.123 434.886 777.323 327.487 665.547 211.361C553.771 95.2341 450.345 14.3537 434.539 30.7096C418.734 47.0655 496.533 154.464 608.31 270.591Z" stroke="url(#paint18_linear_55_26)" stroke-width="2" stroke-miterlimit="10"/>
<path d="M607.325 272.825C726.298 392.727 836.053 475.731 852.469 458.219C868.885 440.707 785.745 329.311 666.771 209.409C547.797 89.5069 438.042 6.50302 421.627 24.0147C405.211 41.5264 488.351 152.922 607.325 272.825Z" stroke="url(#paint19_linear_55_26)" stroke-width="2" stroke-miterlimit="10"/>
<path d="M606.044 275.286C732.617 398.986 849.192 483.898 866.424 464.943C883.655 445.988 795.016 330.343 668.444 206.643C541.872 82.9425 425.296 -1.97006 408.064 16.9852C390.833 35.9404 479.472 151.585 606.044 275.286Z" stroke="url(#paint20_linear_55_26)" stroke-width="2" stroke-miterlimit="10"/>
<path d="M604.679 277.816C739.002 405.092 862.394 491.815 880.283 471.518C898.171 451.221 803.783 331.59 669.46 204.314C535.138 77.0386 411.746 -9.68474 393.857 10.6123C375.968 30.9092 470.356 150.541 604.679 277.816Z" stroke="url(#paint21_linear_55_26)" stroke-width="2" stroke-miterlimit="10"/>
<path d="M603.449 280.592C745.691 411.176 876.188 499.25 894.924 477.31C913.659 455.37 813.537 331.725 671.295 201.141C529.053 70.5565 398.555 -17.5169 379.82 4.42315C361.085 26.3632 461.207 150.008 603.449 280.592Z" stroke="url(#paint22_linear_55_26)" stroke-width="2" stroke-miterlimit="10"/>
<path d="M601.393 284.14C751.835 417.915 889.72 507.103 909.368 483.348C929.016 459.593 822.987 331.89 672.545 198.115C522.103 64.3405 384.218 -24.8478 364.57 -1.09255C344.922 22.6627 450.951 150.366 601.393 284.14Z" stroke="url(#paint23_linear_55_26)" stroke-width="2" stroke-miterlimit="10"/>
<path d="M599.87 287.226C758.549 423.766 903.8 513.691 924.3 488.079C944.799 462.467 832.783 331.017 674.105 194.477C515.426 57.9369 370.174 -31.9884 349.675 -6.37661C329.175 19.2352 441.192 150.685 599.87 287.226Z" stroke="url(#paint24_linear_55_26)" stroke-width="2" stroke-miterlimit="10"/>
<path d="M598.486 291.269C765.726 430.393 918.735 520.642 940.243 492.846C961.75 465.051 843.612 329.736 676.373 190.612C509.133 51.4883 356.124 -38.7612 334.616 -10.9657C313.109 16.8299 431.247 152.145 598.486 291.269Z" stroke="url(#paint25_linear_55_26)" stroke-width="2" stroke-miterlimit="10"/>
<path d="M596.389 295.597C772.201 436.883 933.005 526.963 955.556 496.795C978.106 466.628 853.863 327.636 678.051 186.349C502.239 45.0628 341.434 -45.0168 318.884 -14.849C296.334 15.3188 420.577 154.31 596.389 295.597Z" stroke="url(#paint26_linear_55_26)" stroke-width="2" stroke-miterlimit="10"/>
<path d="M593.978 300.485C778.53 443.595 947.365 532.953 971.083 500.07C994.801 467.188 864.419 324.518 679.867 181.407C495.315 38.2967 326.479 -51.0606 302.762 -18.1782C279.044 14.7042 409.426 157.375 593.978 300.485Z" stroke="url(#paint27_linear_55_26)" stroke-width="2" stroke-miterlimit="10"/>
<path d="M592.228 305.451C785.427 449.798 962.137 537.904 986.92 502.242C1011.7 466.581 875.175 320.655 681.976 176.309C488.776 31.9627 312.067 -56.1436 287.284 -20.4819C262.5 15.1798 399.029 161.105 592.228 305.451Z" stroke="url(#paint28_linear_55_26)" stroke-width="2" stroke-miterlimit="10"/>
<path d="M589.99 311.23C791.998 456.431 976.867 542.567 1002.91 503.619C1028.95 464.672 886.296 315.389 684.288 170.188C482.28 24.9861 297.411 -61.1497 271.371 -22.2021C245.331 16.7456 387.982 166.028 589.99 311.23Z" stroke="url(#paint29_linear_55_26)" stroke-width="2" stroke-miterlimit="10"/>
<path d="M587.781 318.12C798.639 463.682 991.755 547.139 1019.12 504.527C1046.48 461.915 897.725 309.37 686.867 163.808C476.009 18.2465 282.894 -65.2109 255.532 -22.5988C228.17 20.0133 376.924 172.558 587.781 318.12Z" stroke="url(#paint30_linear_55_26)" stroke-width="2" stroke-miterlimit="10"/>
<path d="M585.497 325.37C805.217 470.764 1006.54 550.926 1035.17 504.417C1063.8 457.907 908.884 302.339 689.164 156.945C469.444 11.5505 268.119 -68.6114 239.492 -22.1019C210.866 24.4075 365.777 179.976 585.497 325.37Z" stroke="url(#paint31_linear_55_26)" stroke-width="2" stroke-miterlimit="10"/>
<path d="M582.82 333.655C811.11 478.131 1020.57 553.819 1050.65 502.71C1080.74 451.601 920.06 293.049 691.769 148.574C463.478 4.09806 254.023 -71.5905 223.938 -20.4816C193.852 30.6273 354.529 189.18 582.82 333.655Z" stroke="url(#paint32_linear_55_26)" stroke-width="2" stroke-miterlimit="10"/>
<path d="M580.181 342.49C817.036 485.488 1034.52 556.043 1065.95 500.079C1097.38 444.114 930.846 282.823 693.992 139.825C457.137 -3.17337 239.651 -73.7283 208.223 -17.764C176.795 38.2003 343.327 199.491 580.181 342.49Z" stroke="url(#paint33_linear_55_26)" stroke-width="2" stroke-miterlimit="10"/>
<path d="M577.637 352.152C822.891 492.963 1048.36 557.211 1081.23 495.654C1114.1 434.098 941.937 270.047 696.683 129.237C451.429 -11.5729 225.962 -75.821 193.088 -14.2647C160.215 47.2916 332.383 211.342 577.637 352.152Z" stroke="url(#paint34_linear_55_26)" stroke-width="2" stroke-miterlimit="10"/>
<path d="M574.621 363.996C828.098 501.968 1061.45 558.765 1095.84 490.858C1130.22 422.95 952.604 256.052 699.127 118.081C445.649 -19.8908 212.293 -76.6884 177.912 -8.78063C143.53 59.1271 321.143 226.025 574.621 363.996Z" stroke="url(#paint35_linear_55_26)" stroke-width="2" stroke-miterlimit="10"/>
<path d="M572.213 376.752C833.571 511.069 1074.46 559.252 1110.25 484.372C1146.05 409.493 963.194 239.905 701.836 105.588C440.478 -28.7287 199.588 -76.9123 163.794 -2.0326C128 72.8471 310.855 242.435 572.213 376.752Z" stroke="url(#paint36_linear_55_26)" stroke-width="2" stroke-miterlimit="10"/>
<path d="M569.797 391.145C838.804 521.084 1087.04 559.291 1124.24 476.483C1161.45 393.675 973.536 221.209 704.529 91.2703C435.522 -38.6687 187.288 -76.8758 150.083 5.93243C112.878 88.7406 300.79 261.206 569.797 391.145Z" stroke="url(#paint37_linear_55_26)" stroke-width="2" stroke-miterlimit="10"/>
<path d="M567.551 406.564C843.773 531.304 1098.87 558.215 1137.32 466.671C1175.77 375.128 983.024 199.795 706.802 75.0551C430.58 -49.6849 175.485 -76.5959 137.032 14.9476C98.5791 106.491 291.329 281.824 567.551 406.564Z" stroke="url(#paint38_linear_55_26)" stroke-width="2" stroke-miterlimit="10"/>
<path d="M565.089 424.83C848.073 543.602 1109.63 557.518 1149.3 455.912C1188.97 354.306 991.719 175.654 708.735 56.8817C425.75 -61.8905 164.19 -75.8064 124.523 25.7996C84.8563 127.406 282.104 306.058 565.089 424.83Z" stroke="url(#paint39_linear_55_26)" stroke-width="2" stroke-miterlimit="10"/>
<path d="M563.658 444.843C852.934 556.84 1120.34 556.279 1160.92 443.589C1201.5 330.9 999.894 148.756 710.618 36.7586C421.343 -75.2386 153.941 -74.6775 113.359 38.0118C72.7769 150.701 274.383 332.845 563.658 444.843Z" stroke="url(#paint40_linear_55_26)" stroke-width="2" stroke-miterlimit="10"/>
<path d="M562.239 467.77C857.255 572.244 1129.87 555.361 1171.14 430.06C1212.42 304.759 1006.72 118.49 711.705 14.0153C416.689 -90.4591 144.073 -73.576 102.799 51.7249C61.5253 177.026 267.224 363.295 562.239 467.77Z" stroke="url(#paint41_linear_55_26)" stroke-width="2" stroke-miterlimit="10"/>
<path d="M561.819 493.491C862.005 589.695 1139.06 554.623 1180.63 415.155C1222.21 275.688 1012.56 84.6384 712.374 -11.5651C412.188 -107.769 135.136 -72.6964 93.5618 66.7711C51.9872 206.239 261.633 397.288 561.819 493.491Z" stroke="url(#paint42_linear_55_26)" stroke-width="2" stroke-miterlimit="10"/>
<path d="M562.223 521.94C867.098 609.209 1147.78 554.014 1189.14 398.659C1230.5 243.305 1016.89 46.6201 712.012 -40.6482C407.138 -127.917 126.457 -72.7218 85.0933 82.6327C43.7301 237.987 257.349 434.672 562.223 521.94Z" stroke="url(#paint43_linear_55_26)" stroke-width="2" stroke-miterlimit="10"/>
<path d="M563.726 554.508C872.625 632.223 1155.89 554.856 1196.41 381.704C1236.93 208.553 1019.36 5.18454 710.463 -72.5308C401.564 -150.246 118.303 -72.8794 77.7829 100.272C37.2627 273.424 254.827 476.792 563.726 554.508Z" stroke="url(#paint44_linear_55_26)" stroke-width="2" stroke-miterlimit="10"/>
<path d="M566.779 590.381C878.96 657.936 1163.53 556.235 1202.38 363.226C1241.22 170.216 1019.65 -41.0135 707.466 -108.569C395.285 -176.124 110.719 -74.423 71.8691 118.587C33.0195 311.596 254.598 522.826 566.779 590.381Z" stroke="url(#paint45_linear_55_26)" stroke-width="2" stroke-miterlimit="10"/>
<path d="M571.388 630.938C886.405 687.902 1171.15 559.434 1207.39 343.997C1243.62 128.56 1017.63 -92.265 702.61 -149.229C387.593 -206.193 102.846 -77.7248 66.6097 137.712C30.3737 353.15 256.371 573.974 571.388 630.938Z" stroke="url(#paint46_linear_55_26)" stroke-width="2" stroke-miterlimit="10"/>
<path d="M578.689 675.933C895.919 721.897 1179.33 564.402 1211.71 324.158C1244.09 83.9133 1013.17 -148.105 695.941 -194.07C378.711 -240.034 95.2973 -82.5391 62.9189 157.705C30.5404 397.95 261.458 629.968 578.689 675.933Z" stroke="url(#paint47_linear_55_26)" stroke-width="2" stroke-miterlimit="10"/>
<path d="M587.999 725.656C906.716 760.315 1187.05 571.265 1214.14 303.401C1241.24 35.5378 1004.83 -209.705 686.114 -244.363C367.397 -279.021 87.062 -89.9712 59.9681 177.892C32.8743 445.756 269.282 690.998 587.999 725.656Z" stroke="url(#paint48_linear_55_26)" stroke-width="2" stroke-miterlimit="10"/>
<path d="M600.859 781.482C920.743 804.674 1196.38 581.515 1216.51 283.041C1236.64 -15.4325 993.635 -276.194 673.751 -299.387C353.866 -322.579 78.2307 -99.4193 58.1022 199.054C37.9737 497.528 280.974 758.29 600.859 781.482Z" stroke="url(#paint49_linear_55_26)" stroke-width="2" stroke-miterlimit="10"/>
<path d="M56.5066 241C56.5066 573.476 316.448 843 637.102 843C957.756 843 1217.7 573.476 1217.7 241C1217.7 -91.4752 957.756 -361 637.102 -361C316.448 -361 56.5066 -91.4752 56.5066 241Z" stroke="url(#paint50_linear_55_26)" stroke-width="2" stroke-miterlimit="10"/>
</g>
<defs>
<linearGradient id="paint0_linear_55_26" x1="611.219" y1="148.509" x2="599.756" y2="329.541" gradientUnits="userSpaceOnUse">
<stop stop-color="#2CEBC7" stop-opacity="0.2"/>
<stop offset="0.322917" stop-color="#48C0CC" stop-opacity="0.1"/>
<stop offset="0.651042" stop-color="#48C0CC" stop-opacity="0.2"/>
<stop offset="1" stop-color="#8267D5" stop-opacity="0.3"/>
</linearGradient>
<linearGradient id="paint1_linear_55_26" x1="606.443" y1="142.206" x2="594.194" y2="335.288" gradientUnits="userSpaceOnUse">
<stop stop-color="#2CEBC7" stop-opacity="0.2"/>
<stop offset="0.322917" stop-color="#48C0CC" stop-opacity="0.1"/>
<stop offset="0.651042" stop-color="#48C0CC" stop-opacity="0.2"/>
<stop offset="1" stop-color="#8267D5" stop-opacity="0.3"/>
</linearGradient>
<linearGradient id="paint2_linear_55_26" x1="601.279" y1="135.672" x2="587.839" y2="341.425" gradientUnits="userSpaceOnUse">
<stop stop-color="#2CEBC7" stop-opacity="0.2"/>
<stop offset="0.322917" stop-color="#48C0CC" stop-opacity="0.1"/>
<stop offset="0.651042" stop-color="#48C0CC" stop-opacity="0.2"/>
<stop offset="1" stop-color="#8267D5" stop-opacity="0.3"/>
</linearGradient>
<linearGradient id="paint3_linear_55_26" x1="595.469" y1="128.254" x2="580.747" y2="346.804" gradientUnits="userSpaceOnUse">
<stop stop-color="#2CEBC7" stop-opacity="0.2"/>
<stop offset="0.322917" stop-color="#48C0CC" stop-opacity="0.1"/>
<stop offset="0.651042" stop-color="#48C0CC" stop-opacity="0.2"/>
<stop offset="1" stop-color="#8267D5" stop-opacity="0.3"/>
</linearGradient>
<linearGradient id="paint4_linear_55_26" x1="589.541" y1="121.574" x2="573.476" y2="353.089" gradientUnits="userSpaceOnUse">
<stop stop-color="#2CEBC7" stop-opacity="0.2"/>
<stop offset="0.322917" stop-color="#48C0CC" stop-opacity="0.1"/>
<stop offset="0.651042" stop-color="#48C0CC" stop-opacity="0.2"/>
<stop offset="1" stop-color="#8267D5" stop-opacity="0.3"/>
</linearGradient>
<linearGradient id="paint5_linear_55_26" x1="583.199" y1="114.014" x2="565.423" y2="358.938" gradientUnits="userSpaceOnUse">
<stop stop-color="#2CEBC7" stop-opacity="0.2"/>
<stop offset="0.322917" stop-color="#48C0CC" stop-opacity="0.1"/>
<stop offset="0.651042" stop-color="#48C0CC" stop-opacity="0.2"/>
<stop offset="1" stop-color="#8267D5" stop-opacity="0.3"/>
</linearGradient>
<linearGradient id="paint6_linear_55_26" x1="576.361" y1="106.01" x2="558.52" y2="365.906" gradientUnits="userSpaceOnUse">
<stop stop-color="#2CEBC7" stop-opacity="0.2"/>
<stop offset="0.322917" stop-color="#48C0CC" stop-opacity="0.1"/>
<stop offset="0.651042" stop-color="#48C0CC" stop-opacity="0.2"/>
<stop offset="1" stop-color="#8267D5" stop-opacity="0.3"/>
</linearGradient>
<linearGradient id="paint7_linear_55_26" x1="569.23" y1="97.9515" x2="551.093" y2="373.392" gradientUnits="userSpaceOnUse">
<stop stop-color="#2CEBC7" stop-opacity="0.2"/>
<stop offset="0.322917" stop-color="#48C0CC" stop-opacity="0.1"/>
<stop offset="0.651042" stop-color="#48C0CC" stop-opacity="0.2"/>
<stop offset="1" stop-color="#8267D5" stop-opacity="0.3"/>
</linearGradient>
<linearGradient id="paint8_linear_55_26" x1="561.945" y1="90.2988" x2="543.91" y2="381.173" gradientUnits="userSpaceOnUse">
<stop stop-color="#2CEBC7" stop-opacity="0.2"/>
<stop offset="0.322917" stop-color="#48C0CC" stop-opacity="0.1"/>
<stop offset="0.651042" stop-color="#48C0CC" stop-opacity="0.2"/>
<stop offset="1" stop-color="#8267D5" stop-opacity="0.3"/>
</linearGradient>
<linearGradient id="paint9_linear_55_26" x1="553.492" y1="82.1712" x2="535.311" y2="388.98" gradientUnits="userSpaceOnUse">
<stop stop-color="#2CEBC7" stop-opacity="0.2"/>
<stop offset="0.322917" stop-color="#48C0CC" stop-opacity="0.1"/>
<stop offset="0.651042" stop-color="#48C0CC" stop-opacity="0.2"/>
<stop offset="1" stop-color="#8267D5" stop-opacity="0.3"/>
</linearGradient>
<linearGradient id="paint10_linear_55_26" x1="545.487" y1="73.7452" x2="528.874" y2="398.722" gradientUnits="userSpaceOnUse">
<stop stop-color="#2CEBC7" stop-opacity="0.2"/>
<stop offset="0.322917" stop-color="#48C0CC" stop-opacity="0.1"/>
<stop offset="0.651042" stop-color="#48C0CC" stop-opacity="0.2"/>
<stop offset="1" stop-color="#8267D5" stop-opacity="0.3"/>
</linearGradient>
<linearGradient id="paint11_linear_55_26" x1="536.557" y1="64.8399" x2="521.979" y2="407.883" gradientUnits="userSpaceOnUse">
<stop stop-color="#2CEBC7" stop-opacity="0.2"/>
<stop offset="0.322917" stop-color="#48C0CC" stop-opacity="0.1"/>
<stop offset="0.651042" stop-color="#48C0CC" stop-opacity="0.2"/>
<stop offset="1" stop-color="#8267D5" stop-opacity="0.3"/>
</linearGradient>
<linearGradient id="paint12_linear_55_26" x1="527.418" y1="55.7992" x2="514.822" y2="417.461" gradientUnits="userSpaceOnUse">
<stop stop-color="#2CEBC7" stop-opacity="0.2"/>
<stop offset="0.322917" stop-color="#48C0CC" stop-opacity="0.1"/>
<stop offset="0.651042" stop-color="#48C0CC" stop-opacity="0.2"/>
<stop offset="1" stop-color="#8267D5" stop-opacity="0.3"/>
</linearGradient>
<linearGradient id="paint13_linear_55_26" x1="517.798" y1="47.3253" x2="507.415" y2="427.869" gradientUnits="userSpaceOnUse">
<stop stop-color="#2CEBC7" stop-opacity="0.2"/>
<stop offset="0.322917" stop-color="#48C0CC" stop-opacity="0.1"/>
<stop offset="0.651042" stop-color="#48C0CC" stop-opacity="0.2"/>
<stop offset="1" stop-color="#8267D5" stop-opacity="0.3"/>
</linearGradient>
<linearGradient id="paint14_linear_55_26" x1="507.385" y1="38.2283" x2="501.149" y2="439.965" gradientUnits="userSpaceOnUse">
<stop stop-color="#2CEBC7" stop-opacity="0.2"/>
<stop offset="0.322917" stop-color="#48C0CC" stop-opacity="0.1"/>
<stop offset="0.651042" stop-color="#48C0CC" stop-opacity="0.2"/>
<stop offset="1" stop-color="#8267D5" stop-opacity="0.3"/>
</linearGradient>
<linearGradient id="paint15_linear_55_26" x1="497.114" y1="28.8597" x2="497.691" y2="453.48" gradientUnits="userSpaceOnUse">
<stop stop-color="#2CEBC7" stop-opacity="0.2"/>
<stop offset="0.322917" stop-color="#48C0CC" stop-opacity="0.1"/>
<stop offset="0.651042" stop-color="#48C0CC" stop-opacity="0.2"/>
<stop offset="1" stop-color="#8267D5" stop-opacity="0.3"/>
</linearGradient>
<linearGradient id="paint16_linear_55_26" x1="486.512" y1="19.957" x2="494.336" y2="467.672" gradientUnits="userSpaceOnUse">
<stop stop-color="#2CEBC7" stop-opacity="0.2"/>
<stop offset="0.322917" stop-color="#48C0CC" stop-opacity="0.1"/>
<stop offset="0.651042" stop-color="#48C0CC" stop-opacity="0.2"/>
<stop offset="1" stop-color="#8267D5" stop-opacity="0.3"/>
</linearGradient>
<linearGradient id="paint17_linear_55_26" x1="475.25" y1="10.8345" x2="490.766" y2="481.792" gradientUnits="userSpaceOnUse">
<stop stop-color="#2CEBC7" stop-opacity="0.2"/>
<stop offset="0.322917" stop-color="#48C0CC" stop-opacity="0.1"/>
<stop offset="0.651042" stop-color="#48C0CC" stop-opacity="0.2"/>
<stop offset="1" stop-color="#8267D5" stop-opacity="0.3"/>
</linearGradient>
<linearGradient id="paint18_linear_55_26" x1="463.158" y1="1.09467" x2="488.645" y2="497.395" gradientUnits="userSpaceOnUse">
<stop stop-color="#2CEBC7" stop-opacity="0.2"/>
<stop offset="0.322917" stop-color="#48C0CC" stop-opacity="0.1"/>
<stop offset="0.651042" stop-color="#48C0CC" stop-opacity="0.2"/>
<stop offset="1" stop-color="#8267D5" stop-opacity="0.3"/>
</linearGradient>
<linearGradient id="paint19_linear_55_26" x1="451.35" y1="-7.69299" x2="487.938" y2="513.434" gradientUnits="userSpaceOnUse">
<stop stop-color="#2CEBC7" stop-opacity="0.2"/>
<stop offset="0.322917" stop-color="#48C0CC" stop-opacity="0.1"/>
<stop offset="0.651042" stop-color="#48C0CC" stop-opacity="0.2"/>
<stop offset="1" stop-color="#8267D5" stop-opacity="0.3"/>
</linearGradient>
<linearGradient id="paint20_linear_55_26" x1="439.264" y1="-17.3364" x2="491.556" y2="531.979" gradientUnits="userSpaceOnUse">
<stop stop-color="#2CEBC7" stop-opacity="0.2"/>
<stop offset="0.322917" stop-color="#48C0CC" stop-opacity="0.1"/>
<stop offset="0.651042" stop-color="#48C0CC" stop-opacity="0.2"/>
<stop offset="1" stop-color="#8267D5" stop-opacity="0.3"/>
</linearGradient>
<linearGradient id="paint21_linear_55_26" x1="426.247" y1="-26.1387" x2="493.02" y2="549.437" gradientUnits="userSpaceOnUse">
<stop stop-color="#2CEBC7" stop-opacity="0.2"/>
<stop offset="0.322917" stop-color="#48C0CC" stop-opacity="0.1"/>
<stop offset="0.651042" stop-color="#48C0CC" stop-opacity="0.2"/>
<stop offset="1" stop-color="#8267D5" stop-opacity="0.3"/>
</linearGradient>
<linearGradient id="paint22_linear_55_26" x1="413.743" y1="-35.3028" x2="500.287" y2="568.719" gradientUnits="userSpaceOnUse">
<stop stop-color="#2CEBC7" stop-opacity="0.2"/>
<stop offset="0.322917" stop-color="#48C0CC" stop-opacity="0.1"/>
<stop offset="0.651042" stop-color="#48C0CC" stop-opacity="0.2"/>
<stop offset="1" stop-color="#8267D5" stop-opacity="0.3"/>
</linearGradient>
<linearGradient id="paint23_linear_55_26" x1="400.146" y1="-44.1052" x2="509.268" y2="589.173" gradientUnits="userSpaceOnUse">
<stop stop-color="#2CEBC7" stop-opacity="0.2"/>
<stop offset="0.322917" stop-color="#48C0CC" stop-opacity="0.1"/>
<stop offset="0.651042" stop-color="#48C0CC" stop-opacity="0.2"/>
<stop offset="1" stop-color="#8267D5" stop-opacity="0.3"/>
</linearGradient>
<linearGradient id="paint24_linear_55_26" x1="386.792" y1="-52.751" x2="519.797" y2="608.365" gradientUnits="userSpaceOnUse">
<stop stop-color="#2CEBC7" stop-opacity="0.2"/>
<stop offset="0.322917" stop-color="#48C0CC" stop-opacity="0.1"/>
<stop offset="0.651042" stop-color="#48C0CC" stop-opacity="0.2"/>
<stop offset="1" stop-color="#8267D5" stop-opacity="0.3"/>
</linearGradient>
<linearGradient id="paint25_linear_55_26" x1="373.559" y1="-61.2939" x2="535.502" y2="628.992" gradientUnits="userSpaceOnUse">
<stop stop-color="#2CEBC7" stop-opacity="0.2"/>
<stop offset="0.322917" stop-color="#48C0CC" stop-opacity="0.1"/>
<stop offset="0.651042" stop-color="#48C0CC" stop-opacity="0.2"/>
<stop offset="1" stop-color="#8267D5" stop-opacity="0.3"/>
</linearGradient>
<linearGradient id="paint26_linear_55_26" x1="359.715" y1="-69.4727" x2="553.731" y2="648.913" gradientUnits="userSpaceOnUse">
<stop stop-color="#2CEBC7" stop-opacity="0.2"/>
<stop offset="0.322917" stop-color="#48C0CC" stop-opacity="0.1"/>
<stop offset="0.651042" stop-color="#48C0CC" stop-opacity="0.2"/>
<stop offset="1" stop-color="#8267D5" stop-opacity="0.3"/>
</linearGradient>
<linearGradient id="paint27_linear_55_26" x1="345.706" y1="-77.7172" x2="576.67" y2="668.407" gradientUnits="userSpaceOnUse">
<stop stop-color="#2CEBC7" stop-opacity="0.2"/>
<stop offset="0.322917" stop-color="#48C0CC" stop-opacity="0.1"/>
<stop offset="0.651042" stop-color="#48C0CC" stop-opacity="0.2"/>
<stop offset="1" stop-color="#8267D5" stop-opacity="0.3"/>
</linearGradient>
<linearGradient id="paint28_linear_55_26" x1="332.157" y1="-85.053" x2="601.185" y2="685.777" gradientUnits="userSpaceOnUse">
<stop stop-color="#2CEBC7" stop-opacity="0.2"/>
<stop offset="0.322917" stop-color="#48C0CC" stop-opacity="0.1"/>
<stop offset="0.651042" stop-color="#48C0CC" stop-opacity="0.2"/>
<stop offset="1" stop-color="#8267D5" stop-opacity="0.3"/>
</linearGradient>
<linearGradient id="paint29_linear_55_26" x1="318.521" y1="-92.7231" x2="631.825" y2="701.866" gradientUnits="userSpaceOnUse">
<stop stop-color="#2CEBC7" stop-opacity="0.2"/>
<stop offset="0.322917" stop-color="#48C0CC" stop-opacity="0.1"/>
<stop offset="0.651042" stop-color="#48C0CC" stop-opacity="0.2"/>
<stop offset="1" stop-color="#8267D5" stop-opacity="0.3"/>
</linearGradient>
<linearGradient id="paint30_linear_55_26" x1="305.075" y1="-99.7548" x2="666.583" y2="715.962" gradientUnits="userSpaceOnUse">
<stop stop-color="#2CEBC7" stop-opacity="0.2"/>
<stop offset="0.322917" stop-color="#48C0CC" stop-opacity="0.1"/>
<stop offset="0.651042" stop-color="#48C0CC" stop-opacity="0.2"/>
<stop offset="1" stop-color="#8267D5" stop-opacity="0.3"/>
</linearGradient>
<linearGradient id="paint31_linear_55_26" x1="291.326" y1="-106.315" x2="702.73" y2="727.14" gradientUnits="userSpaceOnUse">
<stop stop-color="#2CEBC7" stop-opacity="0.2"/>
<stop offset="0.322917" stop-color="#48C0CC" stop-opacity="0.1"/>
<stop offset="0.651042" stop-color="#48C0CC" stop-opacity="0.2"/>
<stop offset="1" stop-color="#8267D5" stop-opacity="0.3"/>
</linearGradient>
<linearGradient id="paint32_linear_55_26" x1="278.412" y1="-113.023" x2="745.703" y2="733.513" gradientUnits="userSpaceOnUse">
<stop stop-color="#2CEBC7" stop-opacity="0.2"/>
<stop offset="0.322917" stop-color="#48C0CC" stop-opacity="0.1"/>
<stop offset="0.651042" stop-color="#48C0CC" stop-opacity="0.2"/>
<stop offset="1" stop-color="#8267D5" stop-opacity="0.3"/>
</linearGradient>
<linearGradient id="paint33_linear_55_26" x1="265.128" y1="-119.096" x2="788.653" y2="736.297" gradientUnits="userSpaceOnUse">
<stop stop-color="#2CEBC7" stop-opacity="0.2"/>
<stop offset="0.322917" stop-color="#48C0CC" stop-opacity="0.1"/>
<stop offset="0.651042" stop-color="#48C0CC" stop-opacity="0.2"/>
<stop offset="1" stop-color="#8267D5" stop-opacity="0.3"/>
</linearGradient>
<linearGradient id="paint34_linear_55_26" x1="252.611" y1="-125.722" x2="836.237" y2="733.145" gradientUnits="userSpaceOnUse">
<stop stop-color="#2CEBC7" stop-opacity="0.2"/>
<stop offset="0.322917" stop-color="#48C0CC" stop-opacity="0.1"/>
<stop offset="0.651042" stop-color="#48C0CC" stop-opacity="0.2"/>
<stop offset="1" stop-color="#8267D5" stop-opacity="0.3"/>
</linearGradient>
<linearGradient id="paint35_linear_55_26" x1="240.165" y1="-131.739" x2="886.211" y2="724.951" gradientUnits="userSpaceOnUse">
<stop stop-color="#2CEBC7" stop-opacity="0.2"/>
<stop offset="0.322917" stop-color="#48C0CC" stop-opacity="0.1"/>
<stop offset="0.651042" stop-color="#48C0CC" stop-opacity="0.2"/>
<stop offset="1" stop-color="#8267D5" stop-opacity="0.3"/>
</linearGradient>
<linearGradient id="paint36_linear_55_26" x1="228.605" y1="-137.614" x2="937.059" y2="710.492" gradientUnits="userSpaceOnUse">
<stop stop-color="#2CEBC7" stop-opacity="0.2"/>
<stop offset="0.322917" stop-color="#48C0CC" stop-opacity="0.1"/>
<stop offset="0.651042" stop-color="#48C0CC" stop-opacity="0.2"/>
<stop offset="1" stop-color="#8267D5" stop-opacity="0.3"/>
</linearGradient>
<linearGradient id="paint37_linear_55_26" x1="217.449" y1="-144.005" x2="989.099" y2="689.193" gradientUnits="userSpaceOnUse">
<stop stop-color="#2CEBC7" stop-opacity="0.2"/>
<stop offset="0.322917" stop-color="#48C0CC" stop-opacity="0.1"/>
<stop offset="0.651042" stop-color="#48C0CC" stop-opacity="0.2"/>
<stop offset="1" stop-color="#8267D5" stop-opacity="0.3"/>
</linearGradient>
<linearGradient id="paint38_linear_55_26" x1="206.657" y1="-150.807" x2="1039.89" y2="660.968" gradientUnits="userSpaceOnUse">
<stop stop-color="#2CEBC7" stop-opacity="0.2"/>
<stop offset="0.322917" stop-color="#48C0CC" stop-opacity="0.1"/>
<stop offset="0.651042" stop-color="#48C0CC" stop-opacity="0.2"/>
<stop offset="1" stop-color="#8267D5" stop-opacity="0.3"/>
</linearGradient>
<linearGradient id="paint39_linear_55_26" x1="196.346" y1="-158.174" x2="1090.33" y2="625.221" gradientUnits="userSpaceOnUse">
<stop stop-color="#2CEBC7" stop-opacity="0.2"/>
<stop offset="0.322917" stop-color="#48C0CC" stop-opacity="0.1"/>
<stop offset="0.651042" stop-color="#48C0CC" stop-opacity="0.2"/>
<stop offset="1" stop-color="#8267D5" stop-opacity="0.3"/>
</linearGradient>
<linearGradient id="paint40_linear_55_26" x1="186.839" y1="-166.03" x2="1138.26" y2="583.082" gradientUnits="userSpaceOnUse">
<stop stop-color="#2CEBC7" stop-opacity="0.2"/>
<stop offset="0.322917" stop-color="#48C0CC" stop-opacity="0.1"/>
<stop offset="0.651042" stop-color="#48C0CC" stop-opacity="0.2"/>
<stop offset="1" stop-color="#8267D5" stop-opacity="0.3"/>
</linearGradient>
<linearGradient id="paint41_linear_55_26" x1="177.532" y1="-175.152" x2="1183.33" y2="533.585" gradientUnits="userSpaceOnUse">
<stop stop-color="#2CEBC7" stop-opacity="0.2"/>
<stop offset="0.322917" stop-color="#48C0CC" stop-opacity="0.1"/>
<stop offset="0.651042" stop-color="#48C0CC" stop-opacity="0.2"/>
<stop offset="1" stop-color="#8267D5" stop-opacity="0.3"/>
</linearGradient>
<linearGradient id="paint42_linear_55_26" x1="168.839" y1="-185.757" x2="1224.89" y2="477.308" gradientUnits="userSpaceOnUse">
<stop stop-color="#2CEBC7" stop-opacity="0.2"/>
<stop offset="0.322917" stop-color="#48C0CC" stop-opacity="0.1"/>
<stop offset="0.651042" stop-color="#48C0CC" stop-opacity="0.2"/>
<stop offset="1" stop-color="#8267D5" stop-opacity="0.3"/>
</linearGradient>
<linearGradient id="paint43_linear_55_26" x1="159.988" y1="-198.662" x2="1261.95" y2="414.504" gradientUnits="userSpaceOnUse">
<stop stop-color="#2CEBC7" stop-opacity="0.2"/>
<stop offset="0.322917" stop-color="#48C0CC" stop-opacity="0.1"/>
<stop offset="0.651042" stop-color="#48C0CC" stop-opacity="0.2"/>
<stop offset="1" stop-color="#8267D5" stop-opacity="0.3"/>
</linearGradient>
<linearGradient id="paint44_linear_55_26" x1="151.151" y1="-213.247" x2="1293.9" y2="346.234" gradientUnits="userSpaceOnUse">
<stop stop-color="#2CEBC7" stop-opacity="0.2"/>
<stop offset="0.322917" stop-color="#48C0CC" stop-opacity="0.1"/>
<stop offset="0.651042" stop-color="#48C0CC" stop-opacity="0.2"/>
<stop offset="1" stop-color="#8267D5" stop-opacity="0.3"/>
</linearGradient>
<linearGradient id="paint45_linear_55_26" x1="142.213" y1="-230.888" x2="1320.19" y2="271.678" gradientUnits="userSpaceOnUse">
<stop stop-color="#2CEBC7" stop-opacity="0.2"/>
<stop offset="0.322917" stop-color="#48C0CC" stop-opacity="0.1"/>
<stop offset="0.651042" stop-color="#48C0CC" stop-opacity="0.2"/>
<stop offset="1" stop-color="#8267D5" stop-opacity="0.3"/>
</linearGradient>
<linearGradient id="paint46_linear_55_26" x1="132.221" y1="-252.371" x2="1341" y2="191.356" gradientUnits="userSpaceOnUse">
<stop stop-color="#2CEBC7" stop-opacity="0.2"/>
<stop offset="0.322917" stop-color="#48C0CC" stop-opacity="0.1"/>
<stop offset="0.651042" stop-color="#48C0CC" stop-opacity="0.2"/>
<stop offset="1" stop-color="#8267D5" stop-opacity="0.3"/>
</linearGradient>
<linearGradient id="paint47_linear_55_26" x1="121.545" y1="-277.296" x2="1355.97" y2="106.34" gradientUnits="userSpaceOnUse">
<stop stop-color="#2CEBC7" stop-opacity="0.2"/>
<stop offset="0.322917" stop-color="#48C0CC" stop-opacity="0.1"/>
<stop offset="0.651042" stop-color="#48C0CC" stop-opacity="0.2"/>
<stop offset="1" stop-color="#8267D5" stop-opacity="0.3"/>
</linearGradient>
<linearGradient id="paint48_linear_55_26" x1="109.026" y1="-307.118" x2="1363.83" y2="15.566" gradientUnits="userSpaceOnUse">
<stop stop-color="#2CEBC7" stop-opacity="0.2"/>
<stop offset="0.322917" stop-color="#48C0CC" stop-opacity="0.1"/>
<stop offset="0.651042" stop-color="#48C0CC" stop-opacity="0.2"/>
<stop offset="1" stop-color="#8267D5" stop-opacity="0.3"/>
</linearGradient>
<linearGradient id="paint49_linear_55_26" x1="94.5481" y1="-341.38" x2="1366.18" y2="-79.1929" gradientUnits="userSpaceOnUse">
<stop stop-color="#2CEBC7" stop-opacity="0.2"/>
<stop offset="0.322917" stop-color="#48C0CC" stop-opacity="0.1"/>
<stop offset="0.651042" stop-color="#48C0CC" stop-opacity="0.2"/>
<stop offset="1" stop-color="#8267D5" stop-opacity="0.3"/>
</linearGradient>
<linearGradient id="paint50_linear_55_26" x1="1217.7" y1="-361" x2="1041.24" y2="973.234" gradientUnits="userSpaceOnUse">
<stop stop-color="#2CEBC7" stop-opacity="0.2"/>
<stop offset="0.322917" stop-color="#48C0CC" stop-opacity="0.1"/>
<stop offset="0.651042" stop-color="#48C0CC" stop-opacity="0.2"/>
<stop offset="1" stop-color="#8267D5" stop-opacity="0.3"/>
</linearGradient>
<clipPath id="clip0_55_26">
<rect width="1204" height="1272" fill="white" transform="translate(1273 -361) rotate(90)"/>
</clipPath>
</defs>
</svg>
